<?xml version="1.0" standalone="no"?>
<!DOCTYPE svg PUBLIC "-//W3C//DTD SVG 20010904//EN"
 "http://www.w3.org/TR/2001/REC-SVG-20010904/DTD/svg10.dtd">
<svg version="1.0" xmlns="http://www.w3.org/2000/svg"
 width="1024.000000pt" height="1024.000000pt" viewBox="0 0 1024.000000 1024.000000"
 preserveAspectRatio="xMidYMid meet">
<metadata>
Created by potrace 1.14, written by Peter Selinger 2001-2017
</metadata>
<g transform="translate(0.000000,1024.000000) scale(0.100000,-0.100000)"
fill="#000000" stroke="none">
<path d="M3310 7940 c-218 -27 -484 -127 -675 -255 -132 -89 -280 -245 -361
-380 -116 -194 -186 -497 -163 -704 10 -92 46 -215 87 -296 35 -71 122 -205
133 -205 5 0 9 -7 9 -15 0 -8 -4 -15 -9 -15 -29 0 -325 -302 -382 -389 -52
-80 -35 -165 58 -286 26 -33 59 -74 75 -90 l28 -31 -44 -59 c-84 -111 -128
-304 -107 -467 15 -113 39 -177 101 -267 l50 -73 -21 -30 c-70 -97 -65 -267
11 -419 26 -50 28 -60 18 -100 -5 -24 -10 -102 -10 -174 0 -221 54 -432 152
-596 153 -253 331 -392 630 -487 211 -67 106 -64 2249 -66 1804 -1 1942 0
2028 16 192 37 395 119 528 213 125 88 271 267 335 410 74 162 102 321 102
569 l0 178 35 76 c22 46 37 97 40 131 6 67 -17 171 -52 242 l-26 51 26 34 c35
46 89 166 106 234 22 90 17 242 -10 330 -27 88 -41 117 -88 187 -23 33 -33 58
-29 70 3 10 40 57 81 103 123 138 147 216 93 298 -15 22 -106 114 -202 202
-95 89 -183 175 -195 191 l-21 29 62 82 c181 239 224 546 121 873 -56 177
-190 386 -332 518 -175 161 -451 297 -714 349 l-112 23 -1770 1 c-973 1 -1799
-2 -1835 -6z m3725 -193 c134 -31 250 -77 380 -153 175 -103 245 -161 324
-269 81 -111 144 -236 177 -356 19 -67 30 -314 16 -349 -10 -24 -11 -24 -11
-2 -1 32 -16 27 -40 -14 -57 -96 -222 -251 -331 -310 -158 -86 -289 -118 -475
-118 -77 1 -952 1 -1945 0 -2247 -1 -2101 -2 -2190 14 -140 24 -273 78 -380
156 -25 18 -86 75 -136 126 -121 125 -138 168 -131 318 3 58 15 140 26 182 28
107 112 276 181 361 78 99 153 174 158 159 6 -18 22 -14 22 6 1 20 46 56 60
47 6 -3 13 1 16 10 4 9 27 27 53 41 25 14 64 36 86 49 57 35 277 105 360 114
39 5 889 8 1890 7 1632 -2 1827 -4 1890 -19z m-4535 -1532 c20 -24 6 -28 -15
-5 -10 11 -13 20 -8 20 6 0 16 -7 23 -15z m4960 -170 c0 -6 -103 -36 -108 -31
-2 2 18 11 45 19 56 17 63 19 63 12z m-123 -41 c-3 -3 -12 -4 -19 -1 -8 3 -5
6 6 6 11 1 17 -2 13 -5z m-3899 -21 c-10 -2 -28 -2 -40 0 -13 2 -5 4 17 4 22
1 32 -1 23 -4z m100 0 c-16 -2 -40 -2 -55 0 -16 2 -3 4 27 4 30 0 43 -2 28 -4z
m865 0 c-90 -2 -236 -2 -325 0 -90 1 -17 3 162 3 179 0 252 -2 163 -3z m344 1
c-3 -3 -12 -4 -19 -1 -8 3 -5 6 6 6 11 1 17 -2 13 -5z m126 -1 c-7 -2 -19 -2
-25 0 -7 3 -2 5 12 5 14 0 19 -2 13 -5z m3258 -376 c32 -54 25 -88 -33 -159
-163 -198 -1026 -1066 -1136 -1142 -62 -42 -117 -45 -183 -10 -81 44 -706 672
-687 690 2 1 31 -4 65 -11 48 -10 68 -20 92 -46 17 -19 31 -37 31 -41 0 -4 15
-17 33 -29 24 -17 19 -9 -20 32 -29 30 -53 58 -53 62 0 4 83 7 184 7 187 0
342 19 476 57 77 22 267 104 341 148 136 80 294 215 390 334 72 89 179 271
199 336 6 22 13 45 15 51 4 13 259 -236 286 -279z m-5722 173 c53 -117 144
-252 234 -348 99 -104 327 -272 452 -332 221 -107 503 -159 785 -146 74 4 158
13 185 20 28 8 51 10 53 5 2 -5 -6 -24 -18 -43 -28 -46 -548 -557 -623 -612
-68 -51 -128 -64 -174 -40 -17 8 -144 131 -284 272 -140 141 -292 293 -338
338 -326 314 -621 626 -621 656 0 12 10 35 23 53 28 40 261 267 274 267 6 0
29 -41 52 -90z m2221 -103 c0 -14 -53 -66 -115 -114 -22 -17 -90 -56 -150 -87
-152 -76 -292 -107 -531 -113 -169 -5 -293 6 -321 28 -8 7 -18 7 -32 -1 -11
-6 -33 -8 -48 -4 -45 11 -213 82 -273 116 -66 37 -190 136 -190 152 0 7 34 11
108 11 93 -1 115 -4 168 -28 78 -33 192 -63 319 -82 265 -40 623 6 790 100 58
33 64 34 168 35 81 0 107 -3 107 -13z m1318 -43 c175 -70 285 -87 507 -80 209
6 306 22 466 76 96 33 135 41 225 46 l109 7 -25 -29 c-120 -135 -243 -200
-485 -256 -108 -24 -160 -30 -305 -35 -102 -3 -192 -1 -215 5 -329 82 -462
140 -592 259 -24 22 -43 42 -43 46 0 8 150 15 204 10 21 -2 90 -24 154 -49z
m-716 -128 c168 -198 317 -315 531 -415 l97 -46 -45 -35 c-24 -19 -44 -44 -45
-54 0 -18 1 -18 18 1 13 15 26 18 60 15 30 -3 42 -1 40 8 -2 7 3 15 10 17 8 3
10 -1 5 -14 -6 -16 -5 -17 12 -3 15 12 14 8 -5 -20 -13 -19 -91 -100 -174
-180 -82 -80 -234 -227 -336 -326 -102 -100 -201 -189 -220 -199 -42 -22 -89
-21 -131 0 -53 28 -650 599 -730 698 -65 81 -24 93 73 22 61 -44 78 -53 78
-37 0 15 -16 29 -40 35 -14 3 -40 17 -59 31 l-34 25 134 64 c74 36 166 87 206
113 168 114 329 275 403 400 l34 60 34 -50 c18 -27 56 -77 84 -110z m-2982
-427 c0 -9 -9 -19 -20 -22 -41 -11 -21 -50 99 -198 53 -67 86 -109 103 -132
11 -15 13 -12 15 24 2 32 0 39 -10 31 -9 -8 -12 -4 -13 16 -1 15 1 21 3 15 5
-13 33 -18 33 -7 0 4 -13 29 -30 56 -29 46 -38 78 -23 78 17 0 392 -385 384
-393 -10 -10 -3 -39 8 -33 3 2 6 -17 6 -42 0 -37 8 -58 35 -98 36 -52 106
-134 115 -134 3 0 5 12 4 28 0 15 -3 21 -6 15 -2 -7 -9 -13 -14 -13 -6 0 -7 5
-3 11 3 6 6 33 5 60 0 27 4 49 9 49 6 0 10 -8 11 -17 0 -12 2 -13 6 -5 3 8 49
-30 124 -105 66 -65 130 -123 142 -129 41 -21 129 -26 181 -10 73 22 138 71
270 200 87 86 125 116 140 114 12 -2 21 -9 21 -16 0 -7 5 -16 12 -20 8 -5 9
-13 3 -22 -18 -29 -10 -30 20 -3 17 14 30 33 30 40 0 8 4 12 9 9 5 -3 8 0 8 7
-1 24 16 77 24 77 5 0 9 8 9 19 0 37 30 88 67 117 21 16 43 27 48 26 6 -2 7 0
2 4 -11 11 23 44 39 37 12 -4 18 7 16 28 -1 4 9 16 22 28 17 16 23 18 23 7 0
-8 -4 -13 -9 -10 -4 3 -8 3 -8 0 0 -2 -3 -12 -7 -21 -5 -15 -3 -16 15 -6 18
10 23 8 36 -16 10 -18 15 -22 16 -11 0 12 6 15 23 11 18 -5 20 -3 10 8 -36 37
22 35 60 -3 12 -11 16 -17 8 -13 -9 5 -12 4 -7 -3 4 -7 12 -12 17 -12 9 0 28
-16 127 -105 55 -49 92 -106 92 -141 0 -21 3 -24 13 -16 15 12 57 5 57 -10 0
-5 -4 -6 -10 -3 -6 3 -7 -1 -3 -10 4 -12 8 -13 13 -5 11 18 22 10 169 -125
133 -121 216 -178 278 -190 38 -7 125 15 188 48 22 12 45 20 50 18 6 -1 7 0 3
4 -3 3 15 25 40 48 26 23 135 125 242 227 217 207 258 242 270 235 4 -3 14 3
21 13 13 16 13 16 -6 2 -19 -14 -19 -14 -6 2 7 10 18 15 24 11 5 -3 19 5 29
18 11 13 17 18 13 12 -4 -8 1 -13 12 -13 17 0 48 25 81 65 14 17 37 11 26 -7
-4 -6 -2 -8 3 -5 6 4 69 -53 141 -127 103 -106 131 -141 136 -170 4 -20 4 -41
0 -47 -3 -6 10 -35 30 -65 38 -56 44 -62 43 -41 -4 110 18 104 168 -39 158
-151 186 -167 284 -168 123 -1 138 10 440 308 144 144 272 271 284 283 11 12
25 20 30 16 6 -3 7 -2 4 4 -4 6 4 20 17 32 13 12 26 19 28 14 3 -4 4 -3 2 3
-1 6 42 56 97 110 54 54 99 92 99 84 0 -9 11 -3 30 15 17 16 30 25 30 20 0 -5
6 0 14 11 10 13 11 23 4 31 -10 12 -4 17 15 14 4 0 7 5 7 12 0 8 8 21 18 30
53 48 120 -87 121 -243 1 -94 -27 -233 -56 -278 -57 -87 -121 -150 -192 -185
-56 -27 -76 -32 -136 -31 -38 0 -88 6 -110 12 -22 7 -61 16 -87 21 l-48 8 0
-37 c0 -51 -35 -161 -62 -195 -12 -15 -22 -35 -23 -44 -2 -27 -32 -73 -75
-119 -22 -24 -40 -47 -40 -53 0 -6 -4 -8 -8 -5 -10 6 -94 -48 -86 -56 15 -16
-137 -35 -243 -31 -102 5 -113 3 -113 -12 0 -15 -7 -16 -52 -10 -234 32 -434
242 -457 480 -5 53 -8 60 -26 57 -11 -1 -47 -7 -80 -12 -96 -15 -276 -12 -342
6 -87 24 -144 34 -154 28 -5 -3 -9 -22 -9 -43 0 -83 -84 -273 -155 -352 -19
-22 -35 -43 -35 -48 0 -5 -9 -13 -20 -16 -11 -3 -20 -13 -20 -21 0 -8 -4 -13
-9 -10 -5 3 -11 0 -14 -7 -7 -20 -117 -57 -166 -57 -22 0 -41 -4 -41 -9 0 -5
-24 -9 -52 -9 -72 -2 -281 19 -293 28 -5 4 -27 13 -48 19 -105 34 -249 195
-288 321 -25 83 -40 210 -26 228 6 8 6 12 -1 12 -5 0 -12 -6 -15 -14 -3 -8
-27 -15 -62 -18 -31 -3 -60 -9 -63 -15 -15 -22 -74 -31 -194 -29 -69 0 -124
-2 -121 -6 8 -14 -8 -9 -24 7 -8 8 -20 12 -26 8 -7 -4 -34 -7 -61 -8 l-50 0
-16 -75 c-23 -111 -97 -248 -167 -311 -164 -148 -470 -185 -679 -83 -144 70
-246 215 -290 412 -13 62 -19 72 -37 72 -11 0 -67 10 -124 21 -57 12 -110 18
-120 14 -16 -7 -15 -9 7 -16 16 -6 -5 -7 -58 -5 -91 5 -109 13 -179 82 -95 93
-141 238 -130 403 5 70 13 97 47 168 22 46 40 89 40 96 0 6 9 -1 20 -18 11
-16 20 -37 20 -46z m5770 61 c0 -5 -5 -10 -11 -10 -5 0 -7 5 -4 10 3 6 8 10
11 10 2 0 4 -4 4 -10z m-2115 -110 c8 -13 -5 -13 -25 0 -13 8 -13 10 2 10 9 0
20 -4 23 -10z m45 -14 c0 -11 -19 -15 -25 -6 -3 5 1 10 9 10 9 0 16 -2 16 -4z
m-1674 -238 c3 -4 -1 -5 -10 -4 -8 1 -18 5 -22 8 -3 4 1 5 10 4 8 -1 18 -5 22
-8z m-1362 -424 c3 -8 2 -12 -4 -9 -6 3 -10 10 -10 16 0 14 7 11 14 -7z m5084
-125 c35 -150 -17 -240 -171 -300 -77 -30 -92 -32 -247 -37 -186 -5 -175 -14
-97 75 41 48 81 122 92 171 6 30 9 32 52 32 86 0 169 21 254 64 46 24 89 43
95 44 6 1 16 -21 22 -49z m-5721 11 c19 0 55 -11 82 -24 66 -34 151 -62 181
-60 14 0 41 3 60 5 l35 4 45 -91 c25 -50 62 -112 84 -138 l38 -47 -148 6
c-177 8 -232 21 -316 78 -70 47 -103 95 -117 173 -11 57 -3 120 12 105 6 -6
26 -11 44 -11z m2164 -162 c19 -39 33 -75 31 -80 -4 -14 36 -75 53 -82 8 -3
15 -10 15 -16 0 -7 -107 -10 -320 -10 -176 0 -320 2 -320 5 0 3 25 42 55 88
30 45 57 96 61 112 l5 30 127 -3 c113 -2 143 1 253 27 3 0 21 -31 40 -71z
m1534 41 c100 -9 151 -8 211 7 17 5 23 0 29 -28 4 -18 7 -36 6 -40 0 -5 4 -8
10 -8 5 0 8 -4 5 -9 -4 -5 -1 -20 4 -33 l11 -23 -5 25 c-4 23 -4 23 7 5 7 -10
33 -42 59 -71 l48 -51 -131 -6 c-72 -4 -231 -4 -354 0 l-224 6 40 46 c23 25
45 46 49 46 5 0 12 4 17 9 5 5 2 6 -6 1 -7 -4 -12 -4 -9 1 68 143 70 146 97
140 14 -4 76 -11 136 -17z m-2860 -424 c104 -20 304 -20 401 0 64 14 164 15
697 12 573 -3 627 -5 687 -22 98 -28 325 -27 437 3 79 21 97 22 615 21 293 0
580 -4 638 -9 231 -21 411 -23 483 -6 54 13 125 16 339 16 243 0 270 -2 264
-16 -3 -9 -9 -34 -13 -56 l-6 -41 142 8 141 7 0 -34 c0 -46 -20 -150 -32 -163
-6 -6 -11 -6 -16 2 -5 7 -29 -15 -67 -60 -113 -135 -188 -208 -270 -262 -81
-54 -114 -71 -275 -138 -170 -71 -33 -67 -2165 -64 l-1920 2 -85 22 c-100 25
-229 72 -303 109 -158 80 -327 236 -415 383 -31 51 -62 95 -69 98 -7 3 -17 21
-23 41 -19 69 -18 69 63 61 39 -4 101 -10 136 -13 l63 -6 -7 67 -7 66 244 -6
c151 -4 273 -12 323 -22z m2508 -972 c-35 -2 -91 -2 -125 0 -35 2 -7 3 62 3
69 0 97 -1 63 -3z"/>
<path d="M3515 7476 c-22 -14 -70 -60 -107 -103 -36 -43 -128 -139 -203 -213
-187 -185 -205 -205 -205 -238 0 -46 34 -90 80 -102 36 -10 45 -8 81 11 22 13
76 67 123 123 79 95 178 196 290 297 109 98 132 164 77 220 -37 36 -81 38
-136 5z"/>
<path d="M4332 7480 c-34 -21 -54 -40 -308 -300 -253 -260 -264 -273 -264
-321 0 -58 42 -99 101 -99 47 0 54 6 214 189 50 56 158 169 242 251 161 157
180 188 153 241 -33 63 -77 76 -138 39z"/>
<path d="M5142 7489 c-13 -5 -71 -59 -130 -121 -59 -62 -176 -183 -259 -270
-161 -166 -193 -207 -193 -249 0 -41 50 -89 92 -89 39 0 68 18 116 74 20 23
139 145 264 271 149 150 231 241 236 260 12 41 -3 90 -34 114 -29 22 -55 25
-92 10z"/>
<path d="M5930 7485 c-31 -17 -552 -551 -569 -583 -28 -53 23 -152 77 -152 33
0 76 31 135 98 34 37 156 164 273 282 233 236 246 255 208 318 -28 49 -77 64
-124 37z"/>
<path d="M6710 7466 c-19 -13 -62 -55 -95 -92 -33 -38 -141 -152 -241 -254
-100 -102 -189 -200 -198 -218 -28 -54 -6 -121 45 -141 48 -18 80 -1 154 78
38 42 163 171 278 287 177 179 209 216 214 247 6 42 -11 93 -38 107 -31 17
-83 11 -119 -14z"/>
<path d="M7009 7041 c-35 -34 -39 -44 -39 -87 0 -113 108 -187 190 -132 58 39
83 85 77 142 -4 41 -11 55 -41 83 -32 29 -42 33 -92 33 -52 0 -59 -3 -95 -39z"/>
<path d="M6350 4838 c0 -2 9 -11 20 -21 11 -9 20 -13 20 -7 0 5 -9 14 -20 20
-11 6 -20 9 -20 8z"/>
<path d="M6680 4515 c30 -30 57 -55 59 -55 3 0 -19 25 -49 55 -30 30 -57 55
-59 55 -3 0 19 -25 49 -55z"/>
<path d="M2290 5426 c0 -2 8 -10 18 -17 15 -13 16 -12 3 4 -13 16 -21 21 -21
13z"/>
<path d="M2558 5333 c28 -38 102 -109 102 -98 0 6 -23 32 -50 59 -28 27 -50
53 -50 58 0 4 -5 8 -11 8 -6 0 -1 -12 9 -27z"/>
<path d="M2380 5325 c13 -14 26 -25 28 -25 3 0 -5 11 -18 25 -13 14 -26 25
-28 25 -3 0 5 -11 18 -25z"/>
<path d="M2750 5135 c30 -30 59 -55 64 -55 6 0 -14 25 -44 55 -30 30 -59 55
-64 55 -6 0 14 -25 44 -55z"/>
<path d="M2590 5107 c35 -37 66 -67 68 -67 8 0 -46 57 -88 95 -29 25 -23 16
20 -28z"/>
<path d="M5041 5367 l-25 -32 32 29 c33 31 37 36 25 35 -5 0 -19 -14 -32 -32z"/>
<path d="M5190 5366 c0 -2 8 -10 18 -17 15 -13 16 -12 3 4 -13 16 -21 21 -21
13z"/>
<path d="M4979 5308 c-8 -7 -21 -22 -29 -33 -8 -11 0 -7 18 9 18 17 32 31 32
33 0 6 -6 3 -21 -9z"/>
<path d="M5029 5091 c-33 -33 -39 -45 -39 -81 0 -140 168 -186 240 -67 52 85
-9 187 -113 187 -44 0 -53 -4 -88 -39z"/>
<path d="M4530 4867 c0 -11 100 -110 105 -105 3 2 -20 29 -50 58 -30 30 -55
51 -55 47z"/>
<path d="M2210 5085 c-8 -9 -8 -15 -2 -15 12 0 26 19 19 26 -2 2 -10 -2 -17
-11z"/>
<path d="M7992 4983 c-12 -15 -22 -31 -22 -36 0 -5 -14 -28 -30 -53 -17 -24
-29 -44 -26 -44 8 0 108 152 103 156 -2 2 -13 -8 -25 -23z"/>
<path d="M7815 4930 c-3 -5 -2 -10 4 -10 5 0 13 5 16 10 3 6 2 10 -4 10 -5 0
-13 -4 -16 -10z"/>
<path d="M7785 4899 c-4 -6 -5 -12 -2 -15 2 -3 7 2 10 11 7 17 1 20 -8 4z"/>
<path d="M7736 4852 c-3 -5 1 -9 9 -9 8 0 15 4 15 9 0 4 -4 8 -9 8 -6 0 -12
-4 -15 -8z"/>
<path d="M6134 4622 c-33 -34 -63 -45 -82 -30 -9 7 -6 -1 8 -17 14 -17 30 -33
36 -37 7 -4 31 -24 54 -43 30 -25 52 -35 76 -35 37 0 40 6 24 60 -7 24 -6 36
1 41 17 10 3 26 -28 34 -16 3 -38 15 -49 26 -22 20 -22 20 -40 1z"/>
<path d="M4264 4563 c41 -43 64 -59 75 -55 14 6 14 7 -1 10 -13 2 -18 13 -18
37 0 37 -23 53 -48 33 -13 -11 -14 -11 -7 1 6 10 4 12 -4 7 -7 -5 -22 0 -34
10 -12 10 4 -9 37 -43z"/>
<path d="M7415 4530 c-3 -5 -1 -10 4 -10 6 0 11 5 11 10 0 6 -2 10 -4 10 -3 0
-8 -4 -11 -10z"/>
<path d="M7429 4433 c-52 -56 -116 -143 -106 -143 4 0 108 125 140 168 19 25
0 11 -34 -25z"/>
<path d="M3819 4323 c-13 -16 -12 -17 4 -4 16 13 21 21 13 21 -2 0 -10 -8 -17
-17z"/>
<path d="M2971 4221 c-8 -6 -9 -11 -3 -15 6 -3 14 -1 17 5 9 14 2 20 -14 10z"/>
<path d="M3025 3960 c7 -11 94 -44 100 -38 3 3 -19 14 -50 25 -30 11 -52 17
-50 13z"/>
<path d="M2588 4143 c7 -3 16 -2 19 1 4 3 -2 6 -13 5 -11 0 -14 -3 -6 -6z"/>
<path d="M4265 3546 c-41 -18 -70 -81 -62 -133 7 -43 33 -82 68 -102 34 -19
104 1 140 41 96 102 -16 251 -146 194z"/>
<path d="M5801 3515 c-32 -35 -41 -52 -41 -80 0 -74 51 -125 125 -125 51 0
104 51 112 107 11 82 -37 143 -112 143 -37 0 -47 -5 -84 -45z"/>
</g>
</svg>
